<svg xmlns="http://www.w3.org/2000/svg" xmlns:xlink="http://www.w3.org/1999/xlink" version="1.1" id="Layer_1" x="0px" y="0px" width="100px" height="100px" viewBox="0 0 100 100" enable-background="new 0 0 100 100" xml:space="preserve">
<path d="M31.667,23.333C16.939,23.333,5,35.272,5,50s11.939,26.667,26.667,26.667S58.333,64.728,58.333,50  S46.394,23.333,31.667,23.333z M31.667,73.333C18.801,73.333,8.333,62.866,8.333,50s10.467-23.333,23.333-23.333S55,37.134,55,50  S44.533,73.333,31.667,73.333z"/>
<path d="M34.445,48.333h-1.111v-7.778h7v-3.333h-7v-5.555H30v5.555h-1.111c-2.903,0-7.222,1.923-7.222,7.223  c0,2.903,1.923,7.222,7.222,7.222H30v7.777h-7v3.333h7v5.556h3.333v-5.556h1.111c2.903,0,7.222-1.923,7.222-7.221  C41.667,50.257,37.348,48.333,34.445,48.333z M28.889,48.333c-3.65,0-3.88-3.249-3.889-3.889c0-3.65,3.249-3.88,3.889-3.889H30  v7.778H28.889z M34.445,59.444h-1.111v-7.777h1.1c0.651,0.009,3.9,0.24,3.9,3.889C38.333,59.204,35.085,59.435,34.445,59.444z"/>
<polygon points="66.667,31.667 66.667,50.69 78.333,62.357 80.69,60 70,49.31 70,31.667 "/>
<path d="M68.333,23.333c-5.896,0-11.328,1.937-15.743,5.177c0.802,0.781,1.564,1.603,2.275,2.469  c3.809-2.706,8.45-4.313,13.468-4.313c12.866,0,23.333,10.467,23.333,23.333S81.199,73.333,68.333,73.333  c-5.018,0-9.659-1.608-13.468-4.313c-0.711,0.866-1.473,1.688-2.275,2.469c4.415,3.24,9.846,5.177,15.743,5.177  C83.061,76.667,95,64.728,95,50S83.061,23.333,68.333,23.333z"/>
</svg>